<?xml version="1.0" encoding="UTF-8"?>
<svg version="1.1" xmlns="http://www.w3.org/2000/svg" width="24" height="24">
<path d="M0 0 C2.05078125 0.03255208 4.1015625 0.06510417 6.15234375 0.09765625 C6.15234375 0.75765625 6.15234375 1.41765625 6.15234375 2.09765625 C3.84234375 2.09765625 1.53234375 2.09765625 -0.84765625 2.09765625 C-0.84765625 6.71765625 -0.84765625 11.33765625 -0.84765625 16.09765625 C3.77234375 16.09765625 8.39234375 16.09765625 13.15234375 16.09765625 C13.15234375 13.78765625 13.15234375 11.47765625 13.15234375 9.09765625 C13.81234375 9.09765625 14.47234375 9.09765625 15.15234375 9.09765625 C15.25 15.25 15.25 15.25 15.15234375 17.09765625 C13.33118372 18.91881628 10.84562611 18.23000705 8.42578125 18.234375 C7.67554688 18.23050781 6.9253125 18.22664063 6.15234375 18.22265625 C5.02699219 18.22845703 5.02699219 18.22845703 3.87890625 18.234375 C-1.72104572 18.22426678 -1.72104572 18.22426678 -2.84765625 17.09765625 C-2.94746839 14.42034245 -2.986455 11.7746145 -2.97265625 9.09765625 C-2.97652344 8.34742188 -2.98039063 7.5971875 -2.984375 6.82421875 C-2.97234049 0.15710045 -2.97234049 0.15710045 0 0 Z " fill="#009538" transform="translate(5.84765625,2.90234375)"/>
<path d="M0 0 C2.31 0 4.62 0 7 0 C7 2.31 7 4.62 7 7 C6.34 7 5.68 7 5 7 C4.67 6.34 4.34 5.68 4 5 C1.36 7.64 -1.28 10.28 -4 13 C-4.66 12.34 -5.32 11.68 -6 11 C-3.36 8.36 -0.72 5.72 2 3 C1.34 2.67 0.68 2.34 0 2 C0 1.34 0 0.68 0 0 Z " fill="#009539" transform="translate(14,3)"/>
</svg>
