<svg width="106" height="106" viewBox="0 0 106 106" fill="none" xmlns="http://www.w3.org/2000/svg">
<path d="M49.2797 72.0604H55.9217L57.2467 75.152H61.1537L54.121 60.1523H51.0124L43.9967 75.152H47.9547L49.2797 72.0604ZM52.6092 64.3482L54.6476 69.0876H50.5537L52.6092 64.3482ZM69.1717 71.9754C68.73 72.2132 68.0845 72.3321 67.2182 72.3321C66.3858 72.3321 65.5704 72.2132 64.738 71.9754C63.9226 71.7376 63.1412 71.3809 62.4108 70.9052L61.1707 73.7081C61.6294 74.0478 62.19 74.3366 62.8525 74.5745C63.498 74.8293 64.2114 75.0161 64.9419 75.152C65.6893 75.2879 66.4367 75.3559 67.1672 75.3559C68.5601 75.3559 69.7323 75.169 70.7005 74.7783C71.6688 74.4046 72.3992 73.861 72.9089 73.1645C73.4185 72.468 73.6733 71.6357 73.6733 70.6504C73.6733 70.1068 73.5883 69.5972 73.4185 69.1386C73.2486 68.6799 72.9598 68.2722 72.5691 67.8985C72.1614 67.5248 71.6178 67.202 70.9214 66.8962C70.2249 66.6075 69.3585 66.3527 68.3223 66.1318C67.473 65.945 66.8274 65.7751 66.4028 65.6222C65.9781 65.4693 65.7063 65.2825 65.5534 65.1126C65.4005 64.9257 65.3326 64.7219 65.3326 64.5011C65.3326 64.0424 65.5534 63.6687 65.9781 63.3969C66.4198 63.1251 66.9973 62.9892 67.7108 62.9892C68.4242 62.9892 69.1547 63.1081 69.8851 63.3459C70.6156 63.5837 71.3121 63.9405 71.9915 64.4161L73.2146 61.6132C72.8409 61.2735 72.3483 60.9847 71.7537 60.7469C71.1592 60.4921 70.5137 60.3052 69.8002 60.1693C69.1037 60.0334 68.3903 59.9655 67.6768 59.9655C66.4367 59.9655 65.3666 60.1693 64.4323 60.594C63.498 61.0187 62.7845 61.5962 62.2579 62.3267C61.7313 63.0571 61.4765 63.8725 61.4765 64.7898C61.4765 65.3674 61.5614 65.894 61.7143 66.3527C61.8842 66.8113 62.156 67.236 62.5637 67.6097C62.9714 67.9834 63.515 68.3062 64.2284 68.595C64.9419 68.8837 65.8252 69.1386 66.9124 69.3424C67.6938 69.5123 68.3053 69.6821 68.73 69.835C69.1547 69.9879 69.4435 70.1748 69.5964 70.3616C69.7492 70.5485 69.8342 70.7693 69.8342 71.0071C69.8512 71.4148 69.6303 71.7376 69.1717 71.9754ZM48.6342 35.5719L55.4291 44.0825H58.3508V29.0828H54.6307V37.5594L47.8358 29.0828H44.948V44.0825H48.6342V35.5719ZM37.4906 60.1523H33.5326V75.152H43.8268V71.9584H37.4906V60.1523ZM42.9435 41.0418H36.0976V37.9671H42.5018V34.9264H36.0976V32.1065H42.9435V29.0658H32.2416V44.0655H42.9435V41.0418ZM3.29541 13.0469V92.9546H103.452V13.0469H3.29541ZM98.3896 87.8924H8.35759V18.1091H98.3896V87.8924ZM22.338 74.3876C23.4932 75.0331 24.8521 75.3389 26.4319 75.3389C27.4172 75.3389 28.3685 75.186 29.2858 74.8972C30.2031 74.6084 30.9505 74.2007 31.5111 73.6911L30.305 70.8882C29.6595 71.3469 29.031 71.6866 28.4025 71.9075C27.7909 72.1113 27.1454 72.2302 26.4999 72.2302C25.3108 72.2302 24.3765 71.8395 23.731 71.0751C23.0855 70.3107 22.7457 69.1555 22.7457 67.6437C22.7457 66.1318 23.0685 64.9937 23.731 64.2293C24.3935 63.4648 25.3108 63.0911 26.4999 63.0911C27.1454 63.0911 27.7739 63.193 28.4025 63.4139C29.031 63.6347 29.6595 63.9575 30.305 64.4331L31.5111 61.6302C30.9505 61.1206 30.2031 60.7299 29.2858 60.4241C28.3685 60.1354 27.4172 59.9825 26.4319 59.9825C24.8521 59.9825 23.4932 60.3052 22.338 60.9337C21.1829 61.5623 20.2996 62.4626 19.671 63.6177C19.0425 64.7729 18.7368 66.1148 18.7368 67.6437C18.7368 69.1895 19.0425 70.5315 19.671 71.7036C20.2996 72.8418 21.1829 73.7421 22.338 74.3876ZM30.1861 40.9738H23.2723L29.9653 31.9196V29.0828H18.9066V32.1744H25.5146L18.9066 41.1946V44.0825H30.1861V40.9738ZM83.305 71.9754C82.8633 72.2132 82.2178 72.3321 81.3515 72.3321C80.5191 72.3321 79.7037 72.2132 78.8714 71.9754C78.056 71.7376 77.2746 71.3809 76.5441 70.9052L75.304 73.7081C75.7627 74.0478 76.3233 74.3366 76.9858 74.5745C77.6313 74.8293 78.3448 75.0161 79.0752 75.152C79.8226 75.2879 80.5701 75.3559 81.3005 75.3559C82.6935 75.3559 83.8656 75.169 84.8339 74.7783C85.8021 74.4046 86.5326 73.861 87.0422 73.1645C87.5518 72.468 87.8066 71.6357 87.8066 70.6504C87.8066 70.1068 87.7217 69.5972 87.5518 69.1386C87.3819 68.6799 87.0932 68.2722 86.7024 67.8985C86.2948 67.5248 85.7512 67.202 85.0547 66.8962C84.3582 66.6075 83.4919 66.3527 82.4557 66.1318C81.6063 65.945 80.9608 65.7751 80.5361 65.6222C80.1114 65.4693 79.8396 65.2825 79.6867 65.1126C79.5339 64.9257 79.4659 64.7219 79.4659 64.5011C79.4659 64.0424 79.6867 63.6687 80.1114 63.3969C80.5531 63.1251 81.1307 62.9892 81.8441 62.9892C82.5576 62.9892 83.288 63.1081 84.0185 63.3459C84.7489 63.5837 85.4454 63.9405 86.1249 64.4161L87.348 61.6132C86.9742 61.2735 86.4816 60.9847 85.8871 60.7469C85.2925 60.4921 84.647 60.3052 83.9335 60.1693C83.2371 60.0334 82.5236 59.9655 81.8101 59.9655C80.5701 59.9655 79.4999 60.1693 78.5656 60.594C77.6313 61.0187 76.9178 61.5962 76.3912 62.3267C75.8646 63.0571 75.6098 63.8725 75.6098 64.7898C75.6098 65.3674 75.6948 65.894 75.8476 66.3527C76.0175 66.8113 76.2893 67.236 76.697 67.6097C77.1047 67.9834 77.6483 68.3062 78.3617 68.595C79.0752 68.8837 79.9585 69.1386 81.0457 69.3424C81.8271 69.5123 82.4387 69.6821 82.8633 69.835C83.288 69.9879 83.5768 70.1748 83.7297 70.3616C83.8826 70.5485 83.9675 70.7693 83.9675 71.0071C83.9675 71.4148 83.7467 71.7376 83.305 71.9754Z" fill="white"/>
</svg>
