<svg xmlns="http://www.w3.org/2000/svg" fill="none" viewBox="0 0 184 39" height="39" width="184">
<g clip-path="url(#clip0_1308_2)">
<path fill="#0AD652" d="M0.0400391 11.6598V12.4259C0.0400391 13.9583 0.585848 15.8623 1.10859 16.8967C1.43915 17.5517 1.71974 18.0881 2.13487 18.6627C2.6307 19.3446 3.48786 20.3369 4.14513 20.8425L5.7864 21.9956C7.90428 23.1373 9.29956 23.5394 12.0017 23.5394C14.208 23.5394 16.6487 22.6086 18.2554 21.4517C19.935 20.241 21.1805 18.7662 22.0798 16.8967C23.8326 13.2573 23.406 8.62569 21.0536 5.38473C20.9498 5.23917 20.8653 5.13574 20.7615 4.99782C20.6461 4.84458 20.5462 4.73731 20.4387 4.59941C20.3272 4.45766 20.2234 4.38105 20.1158 4.24696L17.848 2.32384C15.6763 1.00217 14.0312 0.50415 11.1868 0.50415C8.69993 0.50415 6.36296 1.53084 4.54488 2.88315C3.61085 3.57655 2.46927 4.79478 1.86196 5.78699C0.828002 7.48026 0.0400391 9.41487 0.0400391 11.6598Z" clip-rule="evenodd" fill-rule="evenodd"></path>
<path fill="white" d="M7.77344 8.06228C7.77344 10.131 9.48773 11.7898 11.5518 11.7898C12.8395 11.7898 12.901 10.0544 11.6671 9.9356C10.9868 9.87047 10.6947 9.78236 10.2834 9.41843C9.05724 8.32278 9.83367 6.21961 11.5979 6.21961C12.6395 6.21961 13.5082 7.03943 13.5082 8.06228V11.7974C13.5082 12.8625 11.621 11.6289 9.58767 12.8088C7.04696 14.2837 7.16613 18.0992 10.0182 19.3558C10.4756 19.5588 11.0137 19.6853 11.5979 19.6892C13.6659 19.7006 15.4224 18.0954 15.4224 15.9808C15.4224 14.8201 13.6236 14.6667 13.5121 15.9463C13.4545 16.5976 13.316 16.9194 12.9471 17.2833C11.794 18.4173 9.68761 17.6894 9.68761 15.9386C9.68761 15.2146 10.145 14.7052 10.5371 14.4293C11.5633 13.7129 13.5658 14.5059 14.596 13.7934C14.9957 13.5175 15.4224 13.0196 15.4224 12.2917V7.97416C15.4224 6.00507 13.6697 4.33479 11.5557 4.35778C9.49542 4.37694 7.77727 6.00891 7.77727 8.06611" clip-rule="evenodd" fill-rule="evenodd"></path>
<mask height="13" width="88" y="6" x="96" maskUnits="userSpaceOnUse" style="mask-type:luminance" id="mask0_1308_2">
<path fill="white" d="M183.96 6.20764H96.4678V18.6678H183.96V6.20764Z"></path>
</mask>
<g mask="url(#mask0_1308_2)">
<path fill="#0062A8" d="M96.4678 18.2709H105.957L107.995 13.6274H117.3L115.214 18.2709H124.82L130.089 6.63135H120.415L118.679 10.5568H109.381L111.145 6.63135L101.744 6.62451L96.4678 18.2709Z"></path>
<path fill="#0062A8" d="M151.142 10.5859H160.124C160.069 8.63005 158.169 7.27597 154.408 6.73571C146.992 5.64836 138.97 6.11339 133.254 9.25237C128.753 11.7417 128.41 15.4893 132.891 17.329C136.665 18.8608 144.597 19.0181 150.271 18.0606C153.943 17.4383 156.748 16.2347 158.327 14.4362H149.153C147.966 15.3456 146.409 15.8039 144.597 15.8176C139.443 15.8519 138.765 14.2994 139.663 12.5076C140.734 10.4013 142.97 9.25237 146.388 9.15663C149.077 9.08139 150.409 9.67638 151.136 10.5791" clip-rule="evenodd" fill-rule="evenodd"></path>
<path fill="#0062A8" d="M174.471 6.62439L170.47 15.4943H183.96L182.704 18.2638H159.512L164.734 6.62439H174.471Z" clip-rule="evenodd" fill-rule="evenodd"></path>
</g>
<path stroke-linecap="round" stroke-width="0.858293" stroke="#131313" d="M88.21 4.0387V20.5252"></path>
<path fill="#474747" d="M0.49094 30.929C0.49094 30.2093 1.10212 29.6862 1.96024 29.6862C2.69487 29.6862 3.13319 29.9076 3.45421 30.2276L3.0591 30.6891C2.78131 30.4183 2.44176 30.3015 2.02197 30.3015C1.41696 30.3015 1.13916 30.5353 1.13916 30.886C1.13916 31.2858 1.57748 31.4029 2.1763 31.5382C3.07763 31.7413 3.55917 32.1044 3.55917 32.855C3.55917 33.7102 2.79982 34.1163 2.06518 34.1163C1.2688 34.1163 0.639105 33.741 0.256348 33.341L0.669971 32.8181C0.966298 33.1317 1.42314 33.4517 2.02814 33.4517C2.5714 33.4517 2.89859 33.2118 2.89859 32.8427C2.89859 32.418 2.54671 32.2582 1.8738 32.1166C1.06507 31.9443 0.49094 31.6551 0.49094 30.929ZM5.90508 29.5631H6.55331V32.5903L8.21396 30.8551H9.02268L7.6707 32.2458L9.18937 34.0547H8.4177L7.25091 32.6827L6.55331 33.4026V34.0547H5.90508V29.5631ZM11.1478 29.8584C11.1478 29.6246 11.333 29.4401 11.5676 29.4401C11.8022 29.4401 11.9874 29.6246 11.9874 29.8584C11.9874 30.0923 11.8022 30.2769 11.5676 30.2769C11.333 30.2769 11.1478 30.0923 11.1478 29.8584ZM11.2466 30.8551H11.8948V34.0547H11.2466V30.8551ZM14.3944 29.5631H15.0427V34.0547H14.3944V29.5631ZM17.5714 29.5631H18.2197V34.0547H17.5714V29.5631ZM24.7911 32.332C24.7911 33.0025 25.3344 33.5318 25.995 33.5318C26.6554 33.5318 27.1988 33.0025 27.1988 32.332V29.7477H27.8471V32.332C27.8471 33.3718 27.0382 34.1163 25.995 34.1163C24.9517 34.1163 24.1428 33.3718 24.1428 32.332V29.7477H24.7911V32.332ZM30.994 32.455C30.994 33.1257 31.4138 33.5318 32.0127 33.5318C32.6114 33.5318 33.0003 33.1257 33.0003 32.455C33.0003 31.7843 32.6114 31.3783 32.0127 31.3783C31.4138 31.3783 30.994 31.7843 30.994 32.455ZM30.3459 35.2854V30.8551H30.994V31.4336C31.2039 31.0459 31.5681 30.7938 32.1362 30.7938C32.9325 30.7938 33.6486 31.4766 33.6486 32.455C33.6486 33.4334 32.9325 34.1163 32.1362 34.1163C31.5497 34.1163 31.1916 33.8824 30.994 33.5132V35.2854H30.3459ZM35.7184 33.6486C35.7184 33.3902 35.9283 33.181 36.1814 33.181C36.4345 33.181 36.6444 33.3902 36.6444 33.6486C36.6444 33.907 36.4345 34.1163 36.1814 34.1163C35.9283 34.1163 35.7184 33.907 35.7184 33.6486ZM42.3874 29.7477H43.0665V33.4395H45.6594V34.0547H42.3874V29.7477ZM49.959 32.1657C49.8665 31.6674 49.5331 31.3783 49.0269 31.3783C48.5206 31.3783 48.1872 31.6674 48.0946 32.1657H49.959ZM47.4218 32.455C47.4218 31.4766 48.1069 30.7938 49.0269 30.7938C49.9467 30.7938 50.632 31.4766 50.632 32.455V32.6397H48.0822C48.1503 33.1996 48.5453 33.5318 49.0886 33.5318C49.4837 33.5318 49.8973 33.3902 50.1257 33.0887L50.527 33.4886C50.2368 33.8824 49.6874 34.1163 49.0886 34.1163C48.1069 34.1163 47.4218 33.4334 47.4218 32.455ZM52.422 30.8551H53.0703L54.0889 33.2855L55.1074 30.8551H55.7557L54.3975 34.0547H53.7802L52.422 30.8551ZM60.1116 32.1657C60.0189 31.6674 59.6856 31.3783 59.1793 31.3783C58.6731 31.3783 58.3398 31.6674 58.2471 32.1657H60.1116ZM57.5743 32.455C57.5743 31.4766 58.2595 30.7938 59.1793 30.7938C60.0992 30.7938 60.7845 31.4766 60.7845 32.455V32.6397H58.2348C58.3027 33.1996 58.6978 33.5318 59.2411 33.5318C59.6362 33.5318 60.0498 33.3902 60.2782 33.0887L60.6795 33.4886C60.3894 33.8824 59.8399 34.1163 59.2411 34.1163C58.2595 34.1163 57.5743 33.4334 57.5743 32.455ZM63.101 29.5631H63.7491V34.0547H63.101V29.5631ZM70.3206 32.332C70.3206 33.0025 70.8637 33.5318 71.5244 33.5318C72.185 33.5318 72.7282 33.0025 72.7282 32.332V29.7477H73.3764V32.332C73.3764 33.3718 72.5677 34.1163 71.5244 34.1163C70.481 34.1163 69.6724 33.3718 69.6724 32.332V29.7477H70.3206V32.332ZM76.5235 32.455C76.5235 33.1257 76.9433 33.5318 77.5421 33.5318C78.1409 33.5318 78.5299 33.1257 78.5299 32.455C78.5299 31.7843 78.1409 31.3783 77.5421 31.3783C76.9433 31.3783 76.5235 31.7843 76.5235 32.455ZM75.8752 35.2854V30.8551H76.5235V31.4336C76.7333 31.0459 77.0977 30.7938 77.6655 30.7938C78.4619 30.7938 79.178 31.4766 79.178 32.455C79.178 33.4334 78.4619 34.1163 77.6655 34.1163C77.079 34.1163 76.7209 33.8824 76.5235 33.5132V35.2854H75.8752Z"></path>
<path fill="black" d="M36.4084 19.9189C34.9873 19.9189 33.7424 19.6086 32.6732 18.9881C31.6041 18.3678 30.7718 17.5179 30.1763 16.439C29.5809 15.3464 29.2832 14.092 29.2832 12.6757C29.2832 11.5832 29.4659 10.5919 29.8312 9.70165C30.1967 8.79794 30.6973 8.02913 31.3334 7.39519C31.983 6.74777 32.7341 6.25545 33.5867 5.91825C34.4392 5.56756 35.3595 5.39221 36.3474 5.39221C37.4978 5.39221 38.4654 5.53384 39.2503 5.81709C40.0488 6.10034 40.766 6.44428 41.4021 6.84893C41.4968 6.90288 41.5848 6.99055 41.6659 7.11194C41.7607 7.23333 41.8081 7.38845 41.8081 7.57728C41.8081 7.79309 41.7337 7.98867 41.5848 8.16401C41.4359 8.32587 41.2262 8.40679 40.9555 8.40679C40.8067 8.40679 40.6645 8.37308 40.5292 8.30563C39.9337 7.95494 39.318 7.67844 38.6819 7.47612C38.0458 7.2738 37.3354 7.17264 36.5504 7.17264C35.5355 7.17264 34.6152 7.38845 33.7897 7.82006C32.9777 8.2382 32.3281 8.85864 31.8409 9.68141C31.3672 10.4907 31.1304 11.4888 31.1304 12.6757C31.1304 13.7143 31.347 14.6517 31.78 15.4881C32.2131 16.3108 32.8423 16.9649 33.6679 17.4506C34.4934 17.936 35.4881 18.1789 36.652 18.1789C37.3692 18.1789 38.0256 18.0979 38.621 17.936C39.2165 17.7608 39.7442 17.5449 40.2044 17.2887V13.6266H36.8549C36.6249 13.6266 36.4287 13.5457 36.2662 13.3839C36.1038 13.222 36.0227 13.0264 36.0227 12.7972C36.0227 12.5678 36.1038 12.3723 36.2662 12.2104C36.4287 12.0485 36.6249 11.9677 36.8549 11.9677H40.854C41.1246 11.9677 41.3547 12.062 41.5442 12.2509C41.7337 12.4398 41.8283 12.669 41.8283 12.9388V17.5314C41.8283 17.8147 41.7539 18.071 41.605 18.3003C41.4697 18.5161 41.2871 18.6779 41.0569 18.7859C40.3939 19.123 39.6698 19.3996 38.8849 19.6154C38.1135 19.8177 37.2881 19.9189 36.4084 19.9189ZM51.8328 19.9189C51.1561 19.9189 50.4727 19.811 49.7825 19.5951C49.0923 19.3794 48.463 19.0488 47.8946 18.6037C47.3263 18.1452 46.8661 17.5719 46.5142 16.8841C46.176 16.1826 46.0067 15.3599 46.0067 14.4158V6.42405C46.0067 6.16777 46.0947 5.95197 46.2707 5.77662C46.4466 5.58779 46.6631 5.49337 46.9203 5.49337C47.1774 5.49337 47.3939 5.58779 47.5698 5.77662C47.7593 5.95197 47.854 6.16777 47.854 6.42405V14.4765C47.854 15.3127 48.0435 16.014 48.4224 16.5805C48.8149 17.1335 49.3156 17.5517 49.9246 17.835C50.5336 18.1047 51.1697 18.2396 51.8328 18.2396C52.4959 18.2396 53.1319 18.1047 53.7409 17.835C54.3499 17.5517 54.8439 17.1335 55.2229 16.5805C55.6153 16.014 55.8115 15.3127 55.8115 14.4765V6.42405C55.8115 6.16777 55.8995 5.95197 56.0754 5.77662C56.2514 5.58779 56.4679 5.49337 56.725 5.49337C56.9822 5.49337 57.1986 5.58779 57.3746 5.77662C57.5641 5.95197 57.6588 6.16777 57.6588 6.42405V14.4158C57.6588 15.3599 57.4828 16.1826 57.131 16.8841C56.7927 17.5719 56.3393 18.1452 55.7709 18.6037C55.2025 19.0488 54.5732 19.3794 53.8831 19.5951C53.1928 19.811 52.5095 19.9189 51.8328 19.9189ZM66.9522 19.8177C66.3974 19.8177 65.9779 19.5074 65.6937 18.887L60.6796 6.76799C60.6391 6.6601 60.6187 6.54545 60.6187 6.42405C60.6187 6.15429 60.7 5.93173 60.8624 5.75639C61.0248 5.58104 61.2481 5.49337 61.5323 5.49337C61.9382 5.49337 62.2291 5.70244 62.4051 6.12056L67.1755 17.9765L71.9459 6.12056C72.1219 5.70244 72.4128 5.49337 72.8189 5.49337C73.1031 5.49337 73.3264 5.58104 73.4888 5.75639C73.6512 5.93173 73.7323 6.15429 73.7323 6.42405C73.7323 6.54545 73.7121 6.6601 73.6714 6.76799L68.6575 18.887C68.3733 19.5074 67.9536 19.8177 67.3988 19.8177H66.9522ZM77.7179 19.8177C77.4608 19.8177 77.2442 19.73 77.0683 19.5546C76.8923 19.3794 76.8044 19.1635 76.8044 18.9073V6.42405C76.8044 6.16777 76.8923 5.95197 77.0683 5.77662C77.2442 5.58779 77.4608 5.49337 77.7179 5.49337C77.975 5.49337 78.1916 5.58779 78.3674 5.77662C78.5569 5.95197 78.6516 6.16777 78.6516 6.42405V18.9073C78.6516 19.1635 78.5569 19.3794 78.3674 19.5546C78.1916 19.73 77.975 19.8177 77.7179 19.8177Z"></path>
<mask height="17" width="52" y="4" x="28" maskUnits="userSpaceOnUse" style="mask-type:luminance" id="mask1_1308_2">
<path fill="white" d="M79.0402 4.97034H28.8491V20.3972H79.0402V4.97034Z"></path>
<path fill="black" d="M36.4079 19.919C34.9869 19.919 33.7419 19.6087 32.6727 18.9883C31.6036 18.3679 30.7713 17.5181 30.1758 16.4391C29.5804 15.3465 29.2827 14.0922 29.2827 12.6758C29.2827 11.5834 29.4654 10.592 29.8307 9.70177C30.1962 8.79806 30.6968 8.02925 31.3329 7.39531C31.9826 6.74789 32.7336 6.25557 33.5862 5.91837C34.4387 5.56768 35.359 5.39233 36.3469 5.39233C37.4973 5.39233 38.4649 5.53397 39.2498 5.81721C40.0483 6.10046 40.7655 6.4444 41.4016 6.84905C41.4963 6.903 41.5843 6.99067 41.6655 7.11207C41.7603 7.23345 41.8076 7.38857 41.8076 7.5774C41.8076 7.79321 41.7332 7.98879 41.5843 8.16413C41.4354 8.32599 41.2257 8.40691 40.955 8.40691C40.8062 8.40691 40.664 8.3732 40.5287 8.30575C39.9332 7.95507 39.3175 7.67856 38.6814 7.47624C38.0453 7.27392 37.3349 7.17276 36.5499 7.17276C35.535 7.17276 34.6147 7.38857 33.7892 7.82018C32.9772 8.23832 32.3276 8.85876 31.8404 9.68154C31.3667 10.4908 31.1299 11.4889 31.1299 12.6758C31.1299 13.7144 31.3465 14.6518 31.7795 15.4882C32.2126 16.3109 32.8418 16.9651 33.6674 17.4507C34.4929 17.9362 35.4876 18.179 36.6515 18.179C37.3687 18.179 38.0251 18.098 38.6205 17.9362C39.216 17.7609 39.7437 17.5451 40.2039 17.2888V13.6267H36.8544C36.6244 13.6267 36.4282 13.5459 36.2658 13.384C36.1033 13.2221 36.0222 13.0266 36.0222 12.7973C36.0222 12.568 36.1033 12.3724 36.2658 12.2105C36.4282 12.0487 36.6244 11.9678 36.8544 11.9678H40.8535C41.1242 11.9678 41.3542 12.0622 41.5437 12.251C41.7332 12.4399 41.8279 12.6691 41.8279 12.9389V17.5316C41.8279 17.8148 41.7534 18.0712 41.6046 18.3004C41.4692 18.5163 41.2866 18.678 41.0564 18.786C40.3934 19.1231 39.6693 19.3997 38.8845 19.6155C38.113 19.8178 37.2876 19.919 36.4079 19.919ZM51.8323 19.919C51.1557 19.919 50.4722 19.8111 49.7821 19.5952C49.0918 19.3795 48.4625 19.0489 47.8941 18.6038C47.3258 18.1453 46.8656 17.572 46.5137 16.8842C46.1755 16.1827 46.0062 15.36 46.0062 14.4159V6.42418C46.0062 6.1679 46.0942 5.95209 46.2702 5.77675C46.4461 5.58791 46.6626 5.49349 46.9198 5.49349C47.1769 5.49349 47.3934 5.58791 47.5693 5.77675C47.7588 5.95209 47.8535 6.1679 47.8535 6.42418V14.4766C47.8535 15.3128 48.043 16.0142 48.4219 16.5806C48.8144 17.1336 49.3151 17.5519 49.9241 17.8351C50.5331 18.1048 51.1692 18.2397 51.8323 18.2397C52.4954 18.2397 53.1314 18.1048 53.7404 17.8351C54.3494 17.5519 54.8434 17.1336 55.2224 16.5806C55.6148 16.0142 55.811 15.3128 55.811 14.4766V6.42418C55.811 6.1679 55.899 5.95209 56.0749 5.77675C56.2509 5.58791 56.4674 5.49349 56.7245 5.49349C56.9817 5.49349 57.1982 5.58791 57.3741 5.77675C57.5636 5.95209 57.6583 6.1679 57.6583 6.42418V14.4159C57.6583 15.36 57.4823 16.1827 57.1306 16.8842C56.7922 17.572 56.3388 18.1453 55.7704 18.6038C55.202 19.0489 54.5727 19.3795 53.8826 19.5952C53.1923 19.8111 52.509 19.919 51.8323 19.919ZM66.9517 19.8178C66.3969 19.8178 65.9774 19.5076 65.6932 18.8871L60.6791 6.76812C60.6386 6.66022 60.6182 6.54557 60.6182 6.42418C60.6182 6.15441 60.6995 5.93185 60.8619 5.75651C61.0243 5.58117 61.2476 5.49349 61.5318 5.49349C61.9377 5.49349 62.2286 5.70256 62.4046 6.12069L67.175 17.9767L71.9454 6.12069C72.1214 5.70256 72.4123 5.49349 72.8184 5.49349C73.1026 5.49349 73.3259 5.58117 73.4883 5.75651C73.6507 5.93185 73.7318 6.15441 73.7318 6.42418C73.7318 6.54557 73.7116 6.66022 73.671 6.76812L68.657 18.8871C68.3728 19.5076 67.9532 19.8178 67.3983 19.8178H66.9517ZM77.7174 19.8178C77.4603 19.8178 77.2437 19.7301 77.0678 19.5547C76.8918 19.3795 76.804 19.1636 76.804 18.9074V6.42418C76.804 6.1679 76.8918 5.95209 77.0678 5.77675C77.2437 5.58791 77.4603 5.49349 77.7174 5.49349C77.9745 5.49349 78.1911 5.58791 78.3669 5.77675C78.5564 5.95209 78.6511 6.1679 78.6511 6.42418V18.9074C78.6511 19.1636 78.5564 19.3795 78.3669 19.5547C78.1911 19.7301 77.9745 19.8178 77.7174 19.8178Z"></path>
</mask>
<g mask="url(#mask1_1308_2)">
<path fill="black" d="M30.1765 16.439L29.8542 16.6135L29.8547 16.6144L29.8551 16.6152L30.1765 16.439ZM29.8314 9.70169L30.1711 9.84013L30.1714 9.83924L30.1717 9.83835L29.8314 9.70169ZM33.5869 5.91828L33.7222 6.25815L33.7246 6.25722L33.7269 6.25628L33.5869 5.91828ZM39.2505 5.81712L39.1257 6.16093L39.1266 6.16127L39.1275 6.1616L39.2505 5.81712ZM41.4024 6.84897L41.2049 7.15716L41.2125 7.16198L41.2203 7.16643L41.4024 6.84897ZM41.6662 7.11198L41.3609 7.3148L41.3684 7.32592L41.3766 7.33647L41.6662 7.11198ZM41.585 8.16405L41.8554 8.41112L41.8603 8.40578L41.865 8.40023L41.585 8.16405ZM40.5294 8.30567L40.3428 8.62046L40.3538 8.62698L40.3653 8.63271L40.5294 8.30567ZM33.7899 7.8201L33.9583 8.14495L33.9593 8.14443L33.9603 8.14389L33.7899 7.8201ZM31.8411 9.68145L31.5252 9.49562L31.5247 9.49642L31.5243 9.49722L31.8411 9.68145ZM31.7802 15.4881L31.4543 15.6557L31.4548 15.6569L31.4554 15.6579L31.7802 15.4881ZM38.6212 17.9361L38.7178 18.2889L38.7215 18.2878L38.7252 18.2868L38.6212 17.9361ZM40.2046 17.2887L40.3836 17.6079L40.5715 17.5032V17.2887H40.2046ZM40.2046 13.6267H40.5715V13.2611H40.2046V13.6267ZM41.6053 18.3003L41.2973 18.1017L41.2957 18.1041L41.2942 18.1066L41.6053 18.3003ZM41.0572 18.7859L40.901 18.455L40.8957 18.4575L40.8904 18.4601L41.0572 18.7859ZM38.8852 19.6155L38.9785 19.969L38.9805 19.9685L38.9827 19.9679L38.8852 19.6155ZM36.4086 19.5533C35.0427 19.5533 33.8632 19.2555 32.858 18.6723L32.4888 19.3042C33.6218 19.9618 34.9325 20.2845 36.4086 20.2845V19.5533ZM32.858 18.6723C31.8464 18.0851 31.0614 17.2836 30.498 16.2627L29.8551 16.6152C30.4827 17.7524 31.3623 18.6504 32.4888 19.3042L32.858 18.6723ZM30.4989 16.2644C29.9365 15.2325 29.6502 14.0397 29.6502 12.6758H28.9165C28.9165 14.1445 29.2257 15.4603 29.8542 16.6135L30.4989 16.2644ZM29.6502 12.6758C29.6502 11.6243 29.826 10.6808 30.1711 9.84013L29.4919 9.56324C29.1062 10.503 28.9165 11.5422 28.9165 12.6758H29.6502ZM30.1717 9.83835C30.5203 8.9763 30.9948 8.25 31.593 7.65377L31.0743 7.13668C30.4004 7.80834 29.8734 8.61968 29.4913 9.56501L30.1717 9.83835ZM31.593 7.65377C32.2074 7.04154 32.9162 6.57693 33.7222 6.25815L33.4516 5.57843C32.5525 5.93405 31.7592 6.45406 31.0743 7.13668L31.593 7.65377ZM33.7269 6.25628C34.532 5.92511 35.4043 5.75789 36.3476 5.75789V5.02661C35.3152 5.02661 34.347 5.21009 33.447 5.5803L33.7269 6.25628ZM36.3476 5.75789C37.4704 5.75789 38.3927 5.89645 39.1257 6.16093L39.3755 5.47333C38.5385 5.17131 37.5256 5.02661 36.3476 5.02661V5.75789ZM39.1275 6.1616C39.903 6.43671 40.5949 6.76906 41.2049 7.15716L41.5997 6.54076C40.9377 6.11958 40.1949 5.76405 39.3735 5.47265L39.1275 6.1616ZM41.2203 7.16643C41.2517 7.18429 41.3011 7.22525 41.3609 7.3148L41.9714 6.90917C41.869 6.75593 41.7424 6.62155 41.5843 6.5315L41.2203 7.16643ZM41.3766 7.33647C41.4107 7.38013 41.4414 7.4508 41.4414 7.57732H42.1751C42.1751 7.32618 42.1112 7.08661 41.9558 6.8875L41.3766 7.33647ZM41.4414 7.57732C41.4414 7.70081 41.4017 7.81394 41.3049 7.92786L41.865 8.40023C42.0661 8.16346 42.1751 7.88545 42.1751 7.57732H41.4414ZM41.3146 7.91698C41.2506 7.98649 41.1489 8.04119 40.9558 8.04119V8.77247C41.3039 8.77247 41.6217 8.66532 41.8554 8.41112L41.3146 7.91698ZM40.9558 8.04119C40.8647 8.04119 40.7788 8.02113 40.6935 7.97863L40.3653 8.63271C40.5507 8.7251 40.749 8.77247 40.9558 8.77247V8.04119ZM40.7161 7.99088C40.0977 7.62674 39.4568 7.33878 38.7937 7.12783L38.5706 7.82449C39.1795 8.01818 39.7702 8.28322 40.3428 8.62046L40.7161 7.99088ZM38.7937 7.12783C38.1159 6.91223 37.3669 6.80704 36.5507 6.80704V7.53832C37.3042 7.53832 37.9763 7.63544 38.5706 7.82449L38.7937 7.12783ZM36.5507 6.80704C35.4817 6.80704 34.5022 7.03481 33.6194 7.49632L33.9603 8.14389C34.7288 7.74216 35.5896 7.53832 36.5507 7.53832V6.80704ZM33.6215 7.49526C32.7451 7.94654 32.0456 8.61662 31.5252 9.49562L32.1571 9.86729C32.611 9.10073 33.2107 8.52992 33.9583 8.14495L33.6215 7.49526ZM31.5243 9.49722C31.0102 10.3755 30.7638 11.4411 30.7638 12.6758H31.4975C31.4975 11.5366 31.7247 10.606 32.158 9.86569L31.5243 9.49722ZM30.7638 12.6758C30.7638 13.7666 30.9916 14.7625 31.4543 15.6557L32.1062 15.3203C31.7027 14.5412 31.4975 13.6622 31.4975 12.6758H30.7638ZM31.4554 15.6579C31.921 16.5427 32.5991 17.2463 33.4816 17.7655L33.8546 17.1357C33.0861 16.6837 32.5056 16.079 32.1052 15.3182L31.4554 15.6579ZM33.4816 17.7655C34.3746 18.2907 35.4368 18.5445 36.6522 18.5445V17.8132C35.5399 17.8132 34.6127 17.5816 33.8546 17.1357L33.4816 17.7655ZM36.6522 18.5445C37.3969 18.5445 38.0862 18.4606 38.7178 18.2889L38.5247 17.5834C37.9653 17.7354 37.342 17.8132 36.6522 17.8132V18.5445ZM38.7252 18.2868C39.3422 18.1051 39.8959 17.8795 40.3836 17.6079L40.0257 16.9695C39.5931 17.2105 39.0912 17.4166 38.5173 17.5855L38.7252 18.2868ZM40.5715 17.2887V13.6267H39.8378V17.2887H40.5715ZM40.2046 13.2611H36.8551V13.9924H40.2046V13.2611ZM36.8551 13.2611C36.7222 13.2611 36.6194 13.2185 36.5259 13.1254L36.0071 13.6424C36.2384 13.873 36.528 13.9924 36.8551 13.9924V13.2611ZM36.5259 13.1254C36.4324 13.0323 36.3897 12.9297 36.3897 12.7972H35.656C35.656 13.1232 35.7757 13.4119 36.0071 13.6424L36.5259 13.1254ZM36.3897 12.7972C36.3897 12.6646 36.4324 12.5622 36.5259 12.469L36.0071 11.9519C35.7757 12.1824 35.656 12.4711 35.656 12.7972H36.3897ZM36.5259 12.469C36.6194 12.3758 36.7222 12.3333 36.8551 12.3333V11.602C36.528 11.602 36.2384 11.7214 36.0071 11.9519L36.5259 12.469ZM36.8551 12.3333H40.8542V11.602H36.8551V12.3333ZM40.8542 12.3333C41.0287 12.3333 41.1651 12.39 41.285 12.5095L41.8038 11.9924C41.5447 11.7342 41.221 11.602 40.8542 11.602V12.3333ZM41.285 12.5095C41.4049 12.6289 41.4618 12.7649 41.4618 12.9388H42.1955C42.1955 12.5732 42.0628 12.2506 41.8038 11.9924L41.285 12.5095ZM41.4618 12.9388V17.5315H42.1955V12.9388H41.4618ZM41.4618 17.5315C41.4618 17.747 41.4062 17.9338 41.2973 18.1017L41.9133 18.4989C42.1021 18.2082 42.1955 17.8824 42.1955 17.5315H41.4618ZM41.2942 18.1066C41.196 18.263 41.0669 18.3772 40.901 18.455L41.2134 19.1167C41.5075 18.9788 41.7439 18.7692 41.9164 18.4941L41.2942 18.1066ZM40.8904 18.4601C40.2514 18.7851 39.5507 19.0531 38.7875 19.2629L38.9827 19.9679C39.7893 19.7461 40.5368 19.461 41.2239 19.1116L40.8904 18.4601ZM38.7917 19.2618C38.0538 19.4554 37.2599 19.5533 36.4086 19.5533V20.2845C37.3165 20.2845 38.1737 20.1801 38.9785 19.969L38.7917 19.2618ZM47.8949 18.6037L47.6641 18.888L47.6661 18.8897L47.6681 18.8913L47.8949 18.6037ZM46.5144 16.8841L46.1838 17.0425L46.1858 17.0463L46.1877 17.0502L46.5144 16.8841ZM46.2709 5.77666L46.5303 6.03521L46.5352 6.03042L46.5397 6.02547L46.2709 5.77666ZM47.57 5.77666L47.3012 6.02547L47.3104 6.03539L47.3205 6.0446L47.57 5.77666ZM48.4226 16.5806L48.1174 16.7834L48.1202 16.7876L48.1232 16.7918L48.4226 16.5806ZM49.9248 17.835L49.7697 18.1664L49.7728 18.1677L49.7758 18.1691L49.9248 17.835ZM53.7412 17.835L53.8901 18.1691L53.8932 18.1677L53.8963 18.1664L53.7412 17.835ZM55.2231 16.5806L54.9212 16.3729L54.9206 16.3737L54.9201 16.3743L55.2231 16.5806ZM56.0757 5.77666L56.335 6.03521L56.3398 6.03042L56.3445 6.02547L56.0757 5.77666ZM57.3748 5.77666L57.106 6.02547L57.1152 6.03539L57.1252 6.0446L57.3748 5.77666ZM57.1313 16.8841L56.803 16.7205L56.8025 16.7218L56.8018 16.7231L57.1313 16.8841ZM55.7711 18.6037L55.9978 18.8913L55.9999 18.8897L56.0019 18.888L55.7711 18.6037ZM51.833 19.5533C51.1961 19.5533 50.5496 19.4518 49.8926 19.2463L49.6729 19.9441C50.3962 20.1701 51.1166 20.2845 51.833 20.2845V19.5533ZM49.8926 19.2463C49.2447 19.0438 48.655 18.7341 48.1215 18.3163L47.6681 18.8913C48.2715 19.3638 48.9405 19.7151 49.6729 19.9441L49.8926 19.2463ZM48.1257 18.3196C47.5996 17.8951 47.1712 17.363 46.8413 16.718L46.1877 17.0502C46.5614 17.7809 47.0533 18.3953 47.6641 18.888L48.1257 18.3196ZM46.8451 16.7256C46.5352 16.0832 46.3739 15.3166 46.3739 14.4158H45.6401C45.6401 15.4032 45.8171 16.2822 46.1838 17.0425L46.8451 16.7256ZM46.3739 14.4158V6.42409H45.6401V14.4158H46.3739ZM46.3739 6.42409C46.3739 6.26117 46.4257 6.13946 46.5303 6.03521L46.0115 5.51812C45.7642 5.76456 45.6401 6.07447 45.6401 6.42409H46.3739ZM46.5397 6.02547C46.6467 5.91067 46.766 5.85905 46.9205 5.85905V5.12777C46.5606 5.12777 46.247 5.26499 46.0021 5.52786L46.5397 6.02547ZM46.9205 5.85905C47.075 5.85905 47.1942 5.91067 47.3012 6.02547L47.8389 5.52786C47.5939 5.26499 47.2803 5.12777 46.9205 5.12777V5.85905ZM47.3205 6.0446C47.4356 6.1512 47.4874 6.27013 47.4874 6.42409H48.2212C48.2212 6.06551 48.0834 5.75282 47.8197 5.50872L47.3205 6.0446ZM47.4874 6.42409V14.4765H48.2212V6.42409H47.4874ZM47.4874 14.4765C47.4874 15.3683 47.69 16.1444 48.1174 16.7834L48.7279 16.3777C48.3975 15.8839 48.2212 15.2571 48.2212 14.4765H47.4874ZM48.1232 16.7918C48.552 17.396 49.1022 17.8559 49.7697 18.1664L50.0799 17.5037C49.5294 17.2475 49.0783 16.8712 48.7222 16.3695L48.1232 16.7918ZM49.7758 18.1691C50.4315 18.4596 51.1182 18.6052 51.833 18.6052V17.874C51.2215 17.874 50.6361 17.7499 50.0738 17.5008L49.7758 18.1691ZM51.833 18.6052C52.5477 18.6052 53.2345 18.4596 53.8901 18.1691L53.5922 17.5008C53.0298 17.7499 52.4445 17.874 51.833 17.874V18.6052ZM53.8963 18.1664C54.5649 17.8553 55.11 17.394 55.5259 16.7868L54.9201 16.3743C54.5782 16.8732 54.1354 17.2481 53.586 17.5037L53.8963 18.1664ZM55.5249 16.7884C55.9681 16.1487 56.1785 15.3708 56.1785 14.4765H55.4449C55.4449 15.2546 55.2629 15.8795 54.9212 16.3729L55.5249 16.7884ZM56.1785 14.4765V6.42409H55.4449V14.4765H56.1785ZM56.1785 6.42409C56.1785 6.26116 56.2304 6.13946 56.335 6.03521L55.8162 5.51812C55.569 5.76456 55.4449 6.07447 55.4449 6.42409H56.1785ZM56.3445 6.02547C56.4515 5.91067 56.5707 5.85905 56.7252 5.85905V5.12777C56.3654 5.12777 56.0518 5.26499 55.8068 5.52786L56.3445 6.02547ZM56.7252 5.85905C56.8797 5.85905 56.999 5.91067 57.106 6.02547L57.6436 5.52786C57.3987 5.26499 57.0851 5.12777 56.7252 5.12777V5.85905ZM57.1252 6.0446C57.2404 6.1512 57.2922 6.27013 57.2922 6.42409H58.0258C58.0258 6.06551 57.8882 5.75282 57.6244 5.50872L57.1252 6.0446ZM57.2922 6.42409V14.4158H58.0258V6.42409H57.2922ZM57.2922 14.4158C57.2922 15.3147 57.1248 16.0793 56.803 16.7205L57.4594 17.0476C57.8413 16.2861 58.0258 15.4053 58.0258 14.4158H57.2922ZM56.8018 16.7231C56.4857 17.3657 56.0651 17.8962 55.5403 18.3196L56.0019 18.888C56.6139 18.3942 57.1001 17.7782 57.4606 17.045L56.8018 16.7231ZM55.5445 18.3163C55.0111 18.7341 54.4213 19.0438 53.7735 19.2463L53.9931 19.9441C54.7256 19.7151 55.3945 19.3638 55.9978 18.8913L55.5445 18.3163ZM53.7735 19.2463C53.1163 19.4518 52.4699 19.5533 51.833 19.5533V20.2845C52.5494 20.2845 53.2699 20.1701 53.9931 19.9441L53.7735 19.2463ZM65.6939 18.887L65.3547 19.0264L65.3574 19.0328L65.3601 19.0389L65.6939 18.887ZM60.6798 6.76803L60.3363 6.89642L60.3385 6.90195L60.3407 6.90742L60.6798 6.76803ZM62.4053 6.1206L62.7458 5.98452L62.7448 5.98185L62.7437 5.97921L62.4053 6.1206ZM67.1757 17.9766L66.8352 18.1127L67.1757 18.9589L67.5163 18.1127L67.1757 17.9766ZM71.9462 6.1206L71.6079 5.97921L71.6068 5.98185L71.6056 5.98452L71.9462 6.1206ZM73.6717 6.76803L74.0108 6.90742L74.0131 6.90195L74.0151 6.89642L73.6717 6.76803ZM68.6577 18.887L68.9914 19.0389L68.9942 19.0328L68.9968 19.0264L68.6577 18.887ZM66.9524 19.4521C66.7486 19.4521 66.5828 19.3968 66.4403 19.2914C66.2934 19.1828 66.1517 19.0061 66.0276 18.7352L65.3601 19.0389C65.5202 19.3885 65.7304 19.6771 66.0031 19.8787C66.2802 20.0836 66.6016 20.1834 66.9524 20.1834V19.4521ZM66.0331 18.7477L61.019 6.62865L60.3407 6.90742L65.3547 19.0264L66.0331 18.7477ZM61.0234 6.63965C60.999 6.57496 60.9859 6.50401 60.9859 6.42409H60.2521C60.2521 6.58696 60.2795 6.7453 60.3363 6.89642L61.0234 6.63965ZM60.9859 6.42409C60.9859 6.23333 61.0406 6.10332 61.1321 6.00444L60.593 5.50843C60.3598 5.76024 60.2521 6.07532 60.2521 6.42409H60.9859ZM61.1321 6.00444C61.2121 5.91808 61.3298 5.85905 61.5325 5.85905V5.12777C61.1667 5.12777 60.8378 5.24408 60.593 5.50843L61.1321 6.00444ZM61.5325 5.85905C61.6691 5.85905 61.7657 5.89297 61.8406 5.94681C61.9184 6.00268 61.9982 6.09859 62.0671 6.26201L62.7437 5.97921C62.6365 5.72451 62.4829 5.50681 62.2696 5.35362C62.0536 5.19839 61.8019 5.12777 61.5325 5.12777V5.85905ZM62.0648 6.2567L66.8352 18.1127L67.5163 17.8405L62.7458 5.98452L62.0648 6.2567ZM67.5163 18.1127L72.2867 6.2567L71.6056 5.98452L66.8352 17.8405L67.5163 18.1127ZM72.2845 6.26201C72.3533 6.09859 72.4332 6.00268 72.5109 5.94681C72.5858 5.89297 72.6825 5.85905 72.8191 5.85905V5.12777C72.5496 5.12777 72.2978 5.19839 72.0818 5.35362C71.8687 5.50681 71.715 5.72451 71.6079 5.97921L72.2845 6.26201ZM72.8191 5.85905C73.0217 5.85905 73.1394 5.91808 73.2194 6.00444L73.7585 5.50843C73.5137 5.24408 73.1848 5.12777 72.8191 5.12777V5.85905ZM73.2194 6.00444C73.311 6.10332 73.3657 6.23333 73.3657 6.42409H74.0994C74.0994 6.07532 73.9917 5.76024 73.7585 5.50843L73.2194 6.00444ZM73.3657 6.42409C73.3657 6.50401 73.3525 6.57496 73.3282 6.63965L74.0151 6.89642C74.0721 6.7453 74.0994 6.58696 74.0994 6.42409H73.3657ZM73.3325 6.62865L68.3185 18.7477L68.9968 19.0264L74.0108 6.90742L73.3325 6.62865ZM68.3239 18.7352C68.1998 19.0061 68.0581 19.1828 67.9113 19.2914C67.7688 19.3968 67.603 19.4521 67.399 19.4521V20.1834C67.75 20.1834 68.0714 20.0836 68.3485 19.8787C68.621 19.6771 68.8312 19.3885 68.9914 19.0389L68.3239 18.7352ZM67.399 19.4521H66.9524V20.1834H67.399V19.4521ZM77.0685 5.77666L77.328 6.03521L77.3328 6.03042L77.3373 6.02547L77.0685 5.77666ZM78.3677 5.77666L78.0988 6.02547L78.1082 6.03539L78.1181 6.0446L78.3677 5.77666ZM78.3677 19.5547L78.1181 19.2867L78.1131 19.2914L78.1083 19.2961L78.3677 19.5547ZM77.7181 19.4521C77.5546 19.4521 77.4326 19.4004 77.328 19.2961L76.8091 19.8133C77.0563 20.0597 77.3674 20.1834 77.7181 20.1834V19.4521ZM77.328 19.2961C77.2233 19.1919 77.1715 19.0702 77.1715 18.9073H76.4377C76.4377 19.2569 76.5618 19.5668 76.8091 19.8133L77.328 19.2961ZM77.1715 18.9073V6.42409H76.4377V18.9073H77.1715ZM77.1715 6.42409C77.1715 6.26117 77.2233 6.13946 77.328 6.03521L76.8091 5.51812C76.5618 5.76456 76.4377 6.07447 76.4377 6.42409H77.1715ZM77.3373 6.02547C77.4443 5.91067 77.5637 5.85905 77.7181 5.85905V5.12777C77.3584 5.12777 77.0446 5.26499 76.7997 5.52786L77.3373 6.02547ZM77.7181 5.85905C77.8726 5.85905 77.992 5.91067 78.0988 6.02547L78.6365 5.52786C78.3917 5.26499 78.0779 5.12777 77.7181 5.12777V5.85905ZM78.1181 6.0446C78.2332 6.1512 78.285 6.27013 78.285 6.42409H79.0188C79.0188 6.06551 78.8811 5.75282 78.6174 5.50872L78.1181 6.0446ZM78.285 6.42409V18.9073H79.0188V6.42409H78.285ZM78.285 18.9073C78.285 19.0612 78.2332 19.1802 78.1181 19.2867L78.6174 19.8227C78.8811 19.5786 79.0188 19.2659 79.0188 18.9073H78.285ZM78.1083 19.2961C78.0037 19.4004 77.8816 19.4521 77.7181 19.4521V20.1834C78.0689 20.1834 78.3798 20.0597 78.6271 19.8133L78.1083 19.2961Z"></path>
</g>
</g>
<defs>
<clipPath id="clip0_1308_2">
<rect transform="translate(0.0400391 0.50415)" fill="white" height="38" width="183.92"></rect>
</clipPath>
</defs>
</svg>
